<svg width="60" height="58" viewBox="0 0 60 58" fill="none" xmlns="http://www.w3.org/2000/svg">
<rect x="0.316406" y="0.766357" width="58.8422" height="57.0093" rx="8.07781" fill="#43B4EE"/>
<g clip-path="url(#clip0_135_1656)">
<path d="M19.1456 19.0095H40.3288C40.6409 19.0095 40.9402 19.1296 41.1609 19.3435C41.3816 19.5573 41.5056 19.8473 41.5056 20.1497V38.3927C41.5056 38.6951 41.3816 38.9851 41.1609 39.1989C40.9402 39.4127 40.6409 39.5329 40.3288 39.5329H19.1456C18.8335 39.5329 18.5341 39.4127 18.3134 39.1989C18.0927 38.9851 17.9688 38.6951 17.9688 38.3927V20.1497C17.9688 19.8473 18.0927 19.5573 18.3134 19.3435C18.5341 19.1296 18.8335 19.0095 19.1456 19.0095ZM39.1519 23.8416L29.8219 31.9369L20.3224 23.8165V37.2525H39.1519V23.8416ZM20.9238 21.2899L29.809 28.8858L38.5659 21.2899H20.9238Z" fill="white"/>
</g>
<defs>
<clipPath id="clip0_135_1656">
<rect width="28.2443" height="27.3645" fill="white" transform="translate(15.6152 15.5889)"/>
</clipPath>
</defs>
</svg>
