<svg width="29" height="28" viewBox="0 0 29 28" fill="none" xmlns="http://www.w3.org/2000/svg">
<g clip-path="url(#clip0_135_79)">
<path d="M22.976 11.9908H24.1528C24.465 11.9908 24.7643 12.1109 24.985 12.3247C25.2057 12.5385 25.3297 12.8285 25.3297 13.1309V24.5328C25.3297 24.8352 25.2057 25.1252 24.985 25.339C24.7643 25.5529 24.465 25.673 24.1528 25.673H5.32333C5.01121 25.673 4.71188 25.5529 4.49117 25.339C4.27047 25.1252 4.14648 24.8352 4.14648 24.5328V13.1309C4.14648 12.8285 4.27047 12.5385 4.49117 12.3247C4.71188 12.1109 5.01121 11.9908 5.32333 11.9908H6.50017V10.8506C6.50017 9.80244 6.71325 8.76459 7.12725 7.79625C7.54124 6.82792 8.14804 5.94806 8.913 5.20693C9.67796 4.4658 10.5861 3.8779 11.5856 3.4768C12.585 3.07571 13.6563 2.86926 14.7381 2.86926C15.8199 2.86926 16.8911 3.07571 17.8906 3.4768C18.8901 3.8779 19.7982 4.4658 20.5632 5.20693C21.3281 5.94806 21.9349 6.82792 22.3489 7.79625C22.7629 8.76459 22.976 9.80244 22.976 10.8506V11.9908ZM6.50017 14.2711L6.50017 23.3926H22.976V14.2711L6.50017 14.2711ZM13.5612 16.5515H15.9149L15.9149 21.1122H13.5612L13.5612 16.5515ZM20.6223 11.9908V10.8506C20.6223 9.33858 20.0024 7.88853 18.8989 6.8194C17.7953 5.75027 16.2987 5.14963 14.7381 5.14963C13.1775 5.14963 11.6808 5.75027 10.5773 6.8194C9.4738 7.88853 8.85386 9.33858 8.85386 10.8506V11.9908H20.6223Z" fill="white"/>
</g>
<defs>
<clipPath id="clip0_135_79">
<rect width="28.2443" height="27.3645" fill="white" transform="translate(0.615234 0.588867)"/>
</clipPath>
</defs>
</svg>
